<svg version="1.2" xmlns="http://www.w3.org/2000/svg" viewBox="0 0 1296 2411" width="1296" height="2411" fill="white">
	<title>AdobeStock_299122182-ai</title>
	<defs>
		<linearGradient id="g1" x2="1" gradientUnits="userSpaceOnUse" gradientTransform="matrix(-266.579,-670.487,1276.467,-507.511,50.045,1684.428)">
			<stop offset="0" stop-color="#fefefe"/>
			<stop offset=".715" stop-color="#fefefe"/>
			<stop offset="1" stop-color="#2f2c2d"/>
		</linearGradient>
	</defs>

	<g id="_Artboards_">
	</g>
	<g id="Background">
	</g>
	<g id="Layer02">
		<g id="&lt;Group&gt;">
			<g id="&lt;Group&gt;">
			</g>
			<g id="&lt;Group&gt;">
			</g>
			<path id="&lt;Path&gt;" class="s0" d="m895.5 1467.4c0 16.9-13.7 30.6-30.6 30.6-17 0-30.7-13.7-30.7-30.6 0-17 13.7-30.7 30.7-30.7 16.9 0 30.6 13.7 30.6 30.7z"/>
			<path id="&lt;Path&gt;" class="s0" d="m654.6 2325.2q-19.3 0-38.6-1.6c-44-4.2-85.4-13.7-123.4-28.3l-0.5-0.2c-5.4-2.7-10.2-4.7-16.3-6.7l-0.4-0.2c-49.6-21.5-91-48.3-126.5-81.9l-0.1-0.1c-4.6-4.7-9.4-9.2-14-13.6-9-8.6-18.4-17.6-27.2-27.7-45.7-52.5-78.8-116.3-96-184.5-16.7-66.9-18.2-137.9-4.1-205.6 0.5-2.7 3.2-4.4 5.9-3.8 2.7 0.5 4.4 3.2 3.9 5.9-28.3 135.8 8.3 278.4 97.8 381.4 8.5 9.8 17.3 18.2 26.6 27.1 4.7 4.4 9.4 8.9 14.2 13.6 34.5 32.8 74.9 58.9 123.3 80 6.4 2.1 11.4 4.2 17.2 7 37.1 14.3 77.6 23.6 120.4 27.6 95.4 8 186.6-13.6 271-64.3 70.4-43.4 121.8-97.1 157.1-164l0.9-1.2 2.6-2.6c7.1-12.3 12.6-23.6 17.2-35.3 1.1-5.4 3.2-9.7 5.3-13.8q0-0.1 0-0.3c0-0.9 0-2.5 0.9-4.5 50.3-123.5 40.2-262.5-27.8-381.5-41.2-70.1-92.9-122.8-158.2-161.2l-1-0.7-2.5-2.6c-5.9-3.3-11.5-6.2-19-9.7-2.5-1.2-3.6-4.2-2.4-6.7 1.2-2.5 4.1-3.5 6.6-2.4 8.1 3.8 14 6.8 20.3 10.5l1.1 0.8 2.6 2.5c66.4 39.3 119.2 93.1 161.2 164.5 33.8 59.2 54.3 125.9 59.3 192.9 5 67.3-5.8 135.6-31 197.5l-0.1 0.3q0 0.2 0 0.3c0 1 0 2.7-1.1 4.8-1.9 3.8-3.7 7.4-4.5 11.7l-0.3 0.8c-4.7 12.4-10.7 24.7-18.3 37.7l-0.8 1.1-2.5 2.4c-36.2 68.3-88.7 123-160.4 167.3-42.8 25.6-88 44.2-134.4 55.2-33.9 8.1-68.8 12.1-104 12.1z"/>
			<path id="&lt;Path&gt;" class="s1" d="m253.2 1349.3q-22.3 22.4-30.1 49.7-16.5 69.2-16.5 81.2l-0.3 300.9c-0.8 6.8 5.2 15 8.2 10.2 0.8-1.5 1.9-11.4 2.8-14.4l6.4-47.7q12.9-48.7 12.4-54.5 0.5-18 29.8-47.3l686.9-686.9-465.3 174.5z"/>
			<path id="&lt;Path&gt;" class="s0" d="m1100.8 708.1v-293.8q-1.5-1.8-1.5-4.9 0-0.7-0.7-1.2-8.8-9-12.4-0.1-2.1 6.3-2.5 5.4-0.5-0.1-0.1 1.1l0.1 0.6v44q-0.5 24.3-12.4 54.5-12.6 30-29.8 47.3l-132.5 132.4q-84.7 71.6-245 111.7l-356.6 89q5-56.4 42.1-94.6l317.8-318.4q24.8-25.1 42.8-67.8 17.6-41.6 17.6-78.2v-168.9-124.9q0.4-3.8-2.3-6.3-6.8-7-12.4 0.2-2 2.3-2.3 5.3v1.7 43.9q-0.6 24.3-12.4 54.5-12.7 30.2-29.9 47.3l-336.5 336.6q-29.9 30-38.5 73.6-8.6 46-8.6 127.9v413.5q0.1 9.7 6.1 15.4l0.3 0.4q6 6.2 15.8 6.5l180.5-46.8 465.3-174.5 101.7-101.7c26.7-27.3 46.3-102.4 46.3-130.7z"/>
		</g>
	</g>
</svg>